<svg width="1309" height="849" viewBox="0 0 1309 849" fill="none" xmlns="http://www.w3.org/2000/svg">
<path d="M1193.95 846.489L1156.56 733.626C1156.56 733.626 1197.68 774.763 1197.68 808.516L1190.3 730.462C1190.3 730.462 1211.39 758.941 1209.28 802.188C1207.17 845.434 1193.95 846.489 1193.95 846.489Z" fill="#F3F3F3"/>
<path d="M391.078 743.722L354.59 633.573C354.59 633.573 394.724 673.721 394.724 706.662L387.521 630.484C387.521 630.484 408.102 658.279 406.044 700.486C403.986 742.693 391.078 743.722 391.078 743.722Z" fill="#F3F3F3"/>
<path d="M960.583 794.551C960.646 867.01 816.983 844.722 641.106 844.874C465.229 845.025 323.738 867.56 323.676 795.101C323.613 722.643 467.224 706.76 643.101 706.608C818.978 706.456 960.521 722.093 960.583 794.551Z" fill="#F3F3F3"/>
<path d="M1309 844.831H0V848.146H1309V844.831Z" fill="#3F3D56"/>
<path d="M837.322 696.696H814.329L803.386 607.977H837.322V696.696Z" fill="#FFB8B8"/>
<path d="M795.351 690.125H842.25V718.055H769.985V715.5C769.985 708.77 772.657 702.316 777.415 697.557C782.172 692.798 788.624 690.125 795.351 690.125V690.125Z" fill="#2F2E41"/>
<path d="M1006.33 827.641H983.339L972.396 738.922H1006.33V827.641Z" fill="#FFB8B8"/>
<path d="M964.362 821.07H1011.26V849H938.995V846.445C938.995 839.715 941.668 833.261 946.425 828.502C951.182 823.743 957.634 821.07 964.362 821.07V821.07Z" fill="#2F2E41"/>
<path d="M1112.39 564.072C1113.98 562.144 1115.13 559.89 1115.76 557.469C1116.38 555.049 1116.47 552.521 1116.01 550.063C1115.55 547.606 1114.56 545.279 1113.11 543.245C1111.65 541.212 1109.77 539.523 1107.59 538.296L1054.19 320.674L1020.04 335.371L1083.56 545.792C1081.75 549.588 1081.38 553.918 1082.54 557.964C1083.71 562.009 1086.31 565.488 1089.86 567.741C1093.42 569.994 1097.67 570.865 1101.82 570.189C1105.98 569.513 1109.74 567.337 1112.39 564.072V564.072Z" fill="#FFB8B8"/>
<path d="M1070.74 124.254C1068.84 122.261 1066.52 120.71 1063.95 119.711C1061.38 118.712 1058.62 118.288 1055.87 118.47C1053.12 118.653 1050.44 119.436 1048.02 120.765C1045.61 122.095 1043.51 123.938 1041.89 126.165L959.227 135.657L971.801 167.551L1046.97 153.477C1050.89 155.963 1055.59 156.923 1060.17 156.177C1064.75 155.43 1068.9 153.028 1071.83 149.426C1074.76 145.824 1076.27 141.272 1076.07 136.633C1075.87 131.993 1073.97 127.589 1070.74 124.254V124.254Z" fill="#FFB8B8"/>
<path d="M934.527 541.504L970.596 812.301L1015.49 803.055C1015.49 803.055 1008.89 605.84 1031.33 582.065C1053.78 558.29 1002.46 516.641 1002.46 516.641L934.527 541.504Z" fill="#2F2E41"/>
<path d="M949.439 466.915L932.869 491.778C932.869 491.778 805.283 438.738 805.283 523.271C805.283 607.803 797.982 665.171 795.342 669.133C792.701 673.096 825.892 683.378 841.737 680.736C841.737 680.736 861.284 544.456 859.963 536.531C859.963 536.531 985.119 597.915 1008.89 592.631C1032.65 587.348 1038.27 568.645 1042.23 558.079C1046.19 547.512 1040.57 463.6 1040.57 463.6L961.353 439.416L949.439 466.915Z" fill="#2F2E41"/>
<path d="M951.675 317.637L946.952 311.967C946.952 311.967 894.056 192.91 914.836 160.784C935.617 128.657 1026.3 123.932 1029.13 125.822C1031.96 127.712 1022.36 152.248 1028.97 163.587C1028.97 163.587 958.728 178.821 954.005 180.711C949.282 182.601 990.402 252.439 990.402 252.439L985.679 294.959L951.675 317.637Z" fill="#8307FF"/>
<path d="M1044.24 259.053C1044.24 259.053 995.125 264.722 993.236 264.722C991.347 264.722 990.402 252.439 990.402 252.439L946.952 311.967C946.952 311.967 925.545 484.667 931.213 481.832C936.88 478.998 1041.41 495.278 1042.35 487.719C1043.3 480.159 1041.41 442.363 1044.24 440.474C1047.08 438.584 1093.36 321.416 1093.36 321.416C1093.36 321.416 1088.64 296.849 1072.58 288.345C1056.52 279.841 1044.24 259.053 1044.24 259.053Z" fill="#8307FF"/>
<path d="M1078.25 305.353L1093.36 321.416C1093.36 321.416 1115.82 505.999 1103.54 511.668C1091.26 517.337 1067.08 516.641 1067.08 516.641L1043.3 429.135L1078.25 305.353Z" fill="#8307FF"/>
<path d="M997.043 247.364C1021.05 247.364 1040.52 227.892 1040.52 203.872C1040.52 179.852 1021.05 160.381 997.043 160.381C973.032 160.381 953.566 179.852 953.566 203.872C953.566 227.892 973.032 247.364 997.043 247.364Z" fill="#FFB8B8"/>
<path d="M986.841 210.659C986.254 201.634 974.873 201.325 965.833 201.24C956.793 201.154 945.985 201.477 940.87 194.02C937.49 189.093 938.136 182.251 940.928 176.968C943.721 171.685 948.315 167.621 952.834 163.712C964.501 153.62 976.526 143.607 990.533 137.147C1004.54 130.688 1020.96 128.077 1035.48 133.263C1053.33 139.633 1077.45 172.424 1079.54 191.263C1081.62 210.102 1074.09 229.307 1061.41 243.385C1048.72 257.463 1019.68 251.783 1001.41 256.791C1012.52 241.062 1005.19 212.481 987.395 205.136L986.841 210.659Z" fill="#2F2E41"/>
<path d="M599.359 773.227C657.002 773.227 703.73 726.483 703.73 668.821C703.73 611.159 657.002 564.414 599.359 564.414C541.717 564.414 494.988 611.159 494.988 668.821C494.988 726.483 541.717 773.227 599.359 773.227Z" fill="#8507FF"/>
<path d="M529.658 556.995C515.193 556.996 501.038 552.803 488.906 544.923C476.774 537.043 467.185 525.815 461.3 512.597L295.683 139.5C290.197 127.141 287.295 113.791 287.157 100.269C287.018 86.7472 289.645 73.3398 294.877 60.8711C300.109 48.4024 307.835 37.1357 317.579 27.7636C327.324 18.3916 338.882 11.1121 351.542 6.37265C364.203 1.63321 377.698 -0.466069 391.2 0.203881C404.701 0.87383 417.923 4.29884 430.052 10.2684C442.181 16.2379 452.962 24.6259 461.732 34.9167C470.502 45.2075 477.075 57.1836 481.047 70.1091L600.974 460.312C604.407 471.48 605.174 483.299 603.213 494.819C601.252 506.338 596.618 517.236 589.683 526.639C582.747 536.041 573.704 543.686 563.279 548.958C552.855 554.23 541.339 556.983 529.658 556.995H529.658Z" fill="#8507FF"/>
</svg>
